<svg width="19" height="20" viewBox="0 0 19 20" fill="none" xmlns="http://www.w3.org/2000/svg">
<path d="M5.57443 4.91806H9.62048C9.94052 4.91806 10.2 4.67484 10.2 4.37483V2.306C10.2 2.25797 10.1796 2.21191 10.1434 2.17796C10.1072 2.144 10.058 2.12492 10.0068 2.12492H7.7999C7.7999 1.50365 7.26262 1 6.59987 1C5.93712 1 5.39981 1.50365 5.39981 2.12492H3.19289C3.14166 2.12492 3.09253 2.144 3.0563 2.17796C3.02007 2.21191 2.99972 2.25797 2.99972 2.306V4.3748C2.99972 4.67481 3.25918 4.91803 3.57922 4.91803H4.22227M3.57918 6.66089V17.8741M1.23828 6.62467H11.9614M1.23828 8.87459H11.9614M1.23828 11.1244H12M1.23828 13.3743H8.36127M1.23828 15.6242H8.36127M8.39991 12.8118V18.0936C8.39991 18.5937 8.83233 18.999 9.36574 18.999H17.0344C17.5678 18.999 18.0003 18.5937 18.0003 18.0936V12.8118M11.1315 12.8118H18.0002V12.0298C18.0002 11.5298 17.5678 11.1244 17.0344 11.1244H9.3657C8.83229 11.1244 8.39987 11.5298 8.39987 12.0298V12.8118H9.77931M12 11.6869V10.562M14.4001 11.6869V10.562M9.59993 11.6869V10.562M16.8002 11.6869V10.562" stroke="#7A7A7A" stroke-width="0.5" stroke-miterlimit="10" stroke-linecap="round" stroke-linejoin="round"/>
</svg>
