<svg width="18" height="18" viewBox="0 0 18 18" fill="none" xmlns="http://www.w3.org/2000/svg">
<g clip-path="url(#clip0_5229_11903)">
<path d="M6.84848 17.9997C6.86129 17.9997 6.87402 17.9989 6.8868 17.9972L7.04854 17.9756H11.6598C11.7375 17.9756 11.8119 17.9446 11.8665 17.8892C11.9211 17.8337 11.9513 17.7587 11.9501 17.6809L11.926 16.0735C11.926 14.7028 10.6803 14.0662 9.92597 13.9012C9.63877 13.8011 8.8578 13.7878 8.55329 13.9022C7.79874 14.0685 6.5579 14.7059 6.5579 16.0778V17.7094C6.55785 17.7508 6.56669 17.7917 6.58381 17.8293C6.60093 17.867 6.62594 17.9006 6.65715 17.9277C6.71005 17.9742 6.77807 17.9998 6.84848 17.9997ZM11.3651 17.395L7.13854 17.395V16.0778C7.13854 14.8051 8.63581 14.4779 8.69961 14.4645C8.72674 14.4589 8.75294 14.4494 8.77742 14.4363C8.90686 14.3879 9.57751 14.3912 9.72593 14.4455C9.739 14.4502 9.77057 14.4616 9.78418 14.4641C9.84812 14.4776 11.3454 14.8048 11.3454 16.0775L11.3651 17.395ZM9.25416 13.3668C10.0775 13.3668 10.7473 12.6947 10.7473 11.8681C10.7473 11.0416 10.0775 10.3691 9.25416 10.3691C8.43084 10.3691 7.761 11.0416 7.761 11.8681C7.761 12.6947 8.43081 13.3668 9.25416 13.3668ZM9.25416 10.9498C9.75696 10.9498 10.1667 11.3619 10.1667 11.8681C10.1667 12.3741 9.75725 12.7861 9.25416 12.7861C8.75107 12.7861 8.34164 12.3741 8.34164 11.8681C8.34164 11.3618 8.75136 10.9498 9.25416 10.9498ZM0.834806 17.9997C0.847708 17.9997 0.860592 17.9989 0.873383 17.9972L1.03451 17.9756L5.64571 17.9756C5.68418 17.9757 5.72227 17.968 5.75776 17.9532C5.79325 17.9383 5.82543 17.9166 5.85242 17.8892C5.87945 17.8617 5.90076 17.8292 5.91511 17.7934C5.92947 17.7577 5.93658 17.7194 5.93603 17.6809L5.91193 16.0735C5.91193 14.7028 4.66616 14.0662 3.91201 13.9012C3.62481 13.8008 2.84384 13.7875 2.53965 13.9025C1.78532 14.0685 0.544521 14.7057 0.544521 16.0778L0.544521 17.7094C0.544497 17.7508 0.553339 17.7917 0.570452 17.8294C0.587566 17.8671 0.612555 17.9007 0.643738 17.928C0.696606 17.9743 0.764519 17.9998 0.834806 17.9997ZM5.35139 17.395L1.12513 17.395L1.12513 16.0778C1.12513 14.8051 2.62225 14.4779 2.68619 14.4645C2.71346 14.4589 2.73977 14.4493 2.76429 14.4361C2.89312 14.3882 3.5638 14.3915 3.71223 14.4453C3.72529 14.4502 3.75687 14.4616 3.77051 14.4641C3.83442 14.4776 5.33154 14.8045 5.33154 16.0775L5.35139 17.395ZM3.24049 13.3668C4.06381 13.3668 4.73348 12.6947 4.73348 11.8681C4.73348 11.0416 4.06381 10.3691 3.24049 10.3691C2.41699 10.3691 1.74704 11.0416 1.74704 11.8681C1.74704 12.6947 2.41696 13.3668 3.24046 13.3668H3.24049ZM3.24049 10.9498C3.74329 10.9498 4.15283 11.3619 4.15283 11.8681C4.15283 12.3741 3.74355 12.7861 3.24049 12.7861C2.73722 12.7861 2.32768 12.3741 2.32768 11.8681C2.32797 11.3618 2.73722 10.9498 3.24046 10.9498H3.24049ZM12.8625 17.9997C12.8752 17.9997 12.8882 17.9989 12.9012 17.9972L13.0623 17.9756H17.6735C17.712 17.9757 17.7501 17.968 17.7856 17.9532C17.821 17.9383 17.8532 17.9166 17.8802 17.8892C17.9072 17.8617 17.9285 17.8292 17.9429 17.7934C17.9573 17.7577 17.9644 17.7194 17.9638 17.6809L17.9397 16.0735C17.9397 14.7028 16.694 14.0662 15.9397 13.9012C15.6529 13.8008 14.8716 13.7875 14.5673 13.9025C13.8127 14.0685 12.5719 14.7059 12.5719 16.0778V17.7094C12.5719 17.7508 12.5807 17.7918 12.5979 17.8295C12.615 17.8672 12.64 17.9008 12.6713 17.928C12.7242 17.9742 12.7922 17.9997 12.8625 17.9997ZM17.3788 17.395H13.1525V16.0778C13.1525 14.8048 14.6498 14.4779 14.7136 14.4645C14.7409 14.4589 14.7672 14.4493 14.7917 14.4361C14.9207 14.3882 15.5914 14.3915 15.7396 14.4453C15.7527 14.4502 15.7843 14.4616 15.798 14.4641C15.8618 14.4776 17.3591 14.8045 17.3591 16.0775L17.3788 17.395ZM15.2678 13.3668C16.0912 13.3668 16.7613 12.6947 16.7613 11.8681C16.7613 11.0416 16.0912 10.3691 15.2679 10.3691C14.4445 10.3691 13.7747 11.0416 13.7747 11.8681C13.7747 12.6947 14.4445 13.3668 15.2678 13.3668ZM15.2678 10.9498C15.771 10.9498 16.1806 11.3619 16.1806 11.8681C16.1806 12.3741 15.7712 12.7861 15.2679 12.7861C14.765 12.7861 14.3553 12.3741 14.3553 11.8681C14.3553 11.3618 14.7647 10.9498 15.2678 10.9498ZM7.33019 3.5736L6.74955 3.5736L6.74955 6.5317H7.33019L7.33019 3.5736ZM6.15871 4.63596H5.57806V6.5317H6.15871V4.63596ZM5.02989 3.76031H4.44925L4.44925 6.5317H5.02989L5.02989 3.76031ZM3.47293 1.51953L2.89229 1.51953L2.89229 6.5317H3.47293L3.47293 1.51953Z" fill="#666666"/>
<path d="M1.68239 7.83261L10.1183 7.83261C10.2787 7.83261 10.4086 7.70291 10.4086 7.54229C10.4086 7.38167 10.2787 7.25197 10.1183 7.25197L1.97271 7.25197L1.97271 0.580645L11.7243 0.580645L11.7243 5.84742C11.7243 6.0079 11.8541 6.13775 12.0146 6.13775C12.1752 6.13775 12.3049 6.0079 12.3049 5.84742L12.3049 0.290323C12.3049 0.129702 12.1752 0 12.0146 0L1.68239 0C1.52177 0 1.39206 0.129702 1.39206 0.290323L1.39206 7.54229C1.39206 7.70248 1.52177 7.83261 1.68239 7.83261ZM14.564 3.74317C15.4619 3.74317 16.1924 3.00985 16.1924 2.1081C16.1924 1.20694 15.4616 0.473226 14.564 0.473226C13.6662 0.473226 12.9355 1.20651 12.9355 2.1081C12.9355 3.00956 13.666 3.74317 14.564 3.74317ZM14.564 1.05383C15.1417 1.05383 15.6117 1.52673 15.6117 2.10807C15.6117 2.68958 15.1417 3.16252 14.564 3.16252C13.9862 3.16252 13.5161 2.68958 13.5161 2.1081C13.5161 1.52673 13.9862 1.05387 14.564 1.05387V1.05383Z" fill="#666666"/>
<path d="M12.9546 9.90308L16.0795 9.90308C16.1177 9.90313 16.1555 9.89565 16.1907 9.88108C16.2259 9.86651 16.258 9.84512 16.2849 9.81815C16.3119 9.79118 16.3333 9.75916 16.3479 9.72392C16.3624 9.68867 16.3699 9.6509 16.3699 9.61276L16.3699 9.17056C16.5062 9.21368 16.6514 9.221 16.7914 9.19183C17.174 9.11456 17.4521 8.76469 17.4521 8.36081V6.95456C17.4521 6.15237 17.213 5.37891 16.7601 4.71817C16.6022 4.48769 16.3928 4.31288 16.1554 4.21308C15.9125 4.11068 15.6515 4.05814 15.388 4.0586H13.653C13.6101 4.0586 13.5671 4.0603 13.5244 4.06382C13.0425 4.10265 12.5898 4.38746 12.3138 4.82563L11.6614 5.86288L10.3722 6.5656C9.92869 6.80744 9.71864 7.31805 9.87244 7.77962C9.96135 8.04556 10.1494 8.25637 10.4026 8.37301C10.6505 8.48798 10.9393 8.4948 11.1933 8.39202C11.2039 8.38792 11.214 8.38295 11.2236 8.3774L12.6579 7.59291L12.664 9.61399C12.6644 9.69079 12.6952 9.7643 12.7497 9.81846C12.8041 9.87262 12.8778 9.90306 12.9546 9.90308ZM15.7892 9.32243L13.2439 9.32243L13.2375 7.10263L13.2361 6.64973C13.2359 6.57288 13.2052 6.49925 13.1508 6.44499C13.0963 6.39074 13.0226 6.3603 12.9458 6.36035H12.9449C12.8681 6.36056 12.7944 6.39124 12.7402 6.44567C12.6859 6.50009 12.6555 6.57382 12.6555 6.65067V6.65154L12.6563 6.93167L10.9623 7.85834C10.8581 7.89673 10.7467 7.8918 10.6462 7.84502C10.5399 7.79625 10.4606 7.70737 10.4232 7.59534C10.3594 7.40398 10.4569 7.18018 10.65 7.07483L12.0058 6.33596C12.0494 6.31214 12.0861 6.27754 12.1125 6.23547L12.8056 5.13428C12.9845 4.85005 13.271 4.66635 13.5715 4.64225C13.5987 4.63987 13.626 4.63868 13.6533 4.6387L15.3882 4.6387C15.5744 4.63852 15.7587 4.67564 15.9304 4.74786C16.065 4.80411 16.1863 4.90746 16.2811 5.04569C16.6673 5.6099 16.8715 6.26977 16.8715 6.95406V8.36085C16.8715 8.48776 16.7873 8.60044 16.6759 8.62287C16.5707 8.64395 16.497 8.60044 16.4631 8.5725C16.4338 8.5486 16.4103 8.5185 16.3942 8.48437C16.378 8.45024 16.3697 8.41294 16.3698 8.37519V6.44385C16.3698 6.28338 16.2401 6.15353 16.0795 6.15353C15.919 6.15353 15.7891 6.28338 15.7891 6.44385L15.7892 9.32243Z" fill="#666666"/>
<path d="M10.8379 6.78808L8.87763 3.87891L8.39635 4.20327L10.3566 7.11245L10.8379 6.78808Z" fill="#666666"/>
</g>
<defs>
<clipPath id="clip0_5229_11903">
<rect width="18" height="18" fill="white" transform="matrix(-1 0 0 1 18 0)"/>
</clipPath>
</defs>
</svg>
