<svg width="27" height="26" viewBox="0 0 27 26" fill="none" xmlns="http://www.w3.org/2000/svg">
<path d="M9.25287 10.3527H3.72795C3.60482 10.3527 3.48673 10.4073 3.39966 10.5046C3.31259 10.6018 3.26367 10.7336 3.26367 10.8711C3.26367 11.0086 3.31259 11.1405 3.39966 11.2377C3.48673 11.3349 3.60482 11.3896 3.72795 11.3896H9.25287C9.37601 11.3896 9.4941 11.3349 9.58117 11.2377C9.66824 11.1405 9.71715 11.0086 9.71715 10.8711C9.71715 10.7336 9.66824 10.6018 9.58117 10.5046C9.4941 10.4073 9.37601 10.3527 9.25287 10.3527ZM9.25287 13.4373H3.72795C3.60482 13.4373 3.48673 13.4919 3.39966 13.5892C3.31259 13.6864 3.26367 13.8183 3.26367 13.9558C3.26367 14.0932 3.31259 14.2251 3.39966 14.3223C3.48673 14.4196 3.60482 14.4742 3.72795 14.4742H9.25287C9.37601 14.4742 9.4941 14.4196 9.58117 14.3223C9.66824 14.2251 9.71715 14.0932 9.71715 13.9558C9.71715 13.8183 9.66824 13.6864 9.58117 13.5892C9.4941 13.4919 9.37601 13.4373 9.25287 13.4373ZM9.25287 16.5219H3.72795C3.60482 16.5219 3.48673 16.5766 3.39966 16.6738C3.31259 16.771 3.26367 16.9029 3.26367 17.0404C3.26367 17.1779 3.31259 17.3097 3.39966 17.4069C3.48673 17.5042 3.60482 17.5588 3.72795 17.5588H9.25287C9.37601 17.5588 9.4941 17.5042 9.58117 17.4069C9.66824 17.3097 9.71715 17.1779 9.71715 17.0404C9.71715 16.9029 9.66824 16.771 9.58117 16.6738C9.4941 16.5766 9.37601 16.5219 9.25287 16.5219ZM9.25287 19.6066H3.72795C3.60482 19.6066 3.48673 19.6612 3.39966 19.7584C3.31259 19.8556 3.26367 19.9875 3.26367 20.125C3.26367 20.2625 3.31259 20.3943 3.39966 20.4916C3.48673 20.5888 3.60482 20.6434 3.72795 20.6434H9.25287C9.37601 20.6434 9.4941 20.5888 9.58117 20.4916C9.66824 20.3943 9.71715 20.2625 9.71715 20.125C9.71715 19.9875 9.66824 19.8556 9.58117 19.7584C9.4941 19.6612 9.37601 19.6066 9.25287 19.6066ZM14.7769 11.3865H16.5945C16.7177 11.3865 16.8357 11.3318 16.9228 11.2346C17.0099 11.1374 17.0588 11.0055 17.0588 10.868C17.0588 10.7305 17.0099 10.5987 16.9228 10.5015C16.8357 10.4042 16.7177 10.3496 16.5945 10.3496H14.7769C14.6537 10.3496 14.5356 10.4042 14.4486 10.5015C14.3615 10.5987 14.3126 10.7305 14.3126 10.868C14.3126 11.0055 14.3615 11.1374 14.4486 11.2346C14.5356 11.3318 14.6537 11.3865 14.7769 11.3865ZM14.7769 14.4778H15.7077C15.8309 14.4778 15.949 14.4232 16.036 14.326C16.1231 14.2287 16.172 14.0969 16.172 13.9594C16.172 13.8219 16.1231 13.69 16.036 13.5928C15.949 13.4956 15.8309 13.441 15.7077 13.441H14.7769C14.6537 13.441 14.5356 13.4956 14.4486 13.5928C14.3615 13.69 14.3126 13.8219 14.3126 13.9594C14.3126 14.0969 14.3615 14.2287 14.4486 14.326C14.5356 14.4232 14.6537 14.4778 14.7769 14.4778ZM14.7769 17.5609H15.5647C15.6879 17.5609 15.806 17.5062 15.893 17.409C15.9801 17.3118 16.029 17.1799 16.029 17.0424C16.029 16.9049 15.9801 16.7731 15.893 16.6759C15.806 16.5786 15.6879 16.524 15.5647 16.524H14.7769C14.6537 16.524 14.5356 16.5786 14.4486 16.6759C14.3615 16.7731 14.3126 16.9049 14.3126 17.0424C14.3126 17.1799 14.3615 17.3118 14.4486 17.409C14.5356 17.5062 14.6537 17.5609 14.7769 17.5609ZM20.3036 19.6066H14.7778C14.6547 19.6066 14.5366 19.6612 14.4495 19.7584C14.3624 19.8556 14.3135 19.9875 14.3135 20.125C14.3135 20.2625 14.3624 20.3943 14.4495 20.4916C14.5366 20.5888 14.6547 20.6434 14.7778 20.6434H20.3027C20.4259 20.6434 20.5439 20.5888 20.631 20.4916C20.7181 20.3943 20.767 20.2625 20.767 20.125C20.767 19.9875 20.7181 19.8556 20.631 19.7584C20.5439 19.6612 20.4259 19.6066 20.3027 19.6066H20.3036Z" fill="#4A148C"/>
<path d="M25.4852 0.408277C25.2628 0.228314 25.0084 0.103675 24.7392 0.0427576C24.4699 -0.0181597 24.1922 -0.0139405 23.9245 0.0551314C23.6569 0.124203 23.4057 0.256523 23.1877 0.443176C22.9697 0.629828 22.7901 0.866477 22.661 1.13718L20.6971 5.44008C17.7892 4.6279 14.7191 4.96628 12.0095 6.3976C10.2486 5.4637 8.32088 4.98835 6.37156 5.00739C4.42225 5.02642 2.50224 5.53936 0.756282 6.50751C0.679261 6.55061 0.614497 6.61678 0.569237 6.69863C0.523976 6.78048 0.500003 6.87478 0.5 6.97098V25.4797C0.500965 25.5676 0.521797 25.6539 0.560565 25.7305C0.599334 25.807 0.654785 25.8714 0.721779 25.9177C0.788774 25.964 0.865144 25.9906 0.943813 25.9952C1.02248 25.9997 1.1009 25.982 1.17181 25.9437C2.82408 25.0267 4.6441 24.5495 6.4892 24.5495C8.3343 24.5495 10.1543 25.0267 11.8066 25.9437C11.8709 25.9801 11.9419 25.9994 12.014 26C12.0861 26.0006 12.1573 25.9826 12.2221 25.9473C13.8747 25.03 15.6952 24.5526 17.5407 24.5526C19.3862 24.5526 21.2066 25.03 22.8592 25.9473C22.9301 25.9856 23.0086 26.0033 23.0872 25.9988C23.1659 25.9942 23.2423 25.9676 23.3093 25.9213C23.3762 25.8751 23.4317 25.8107 23.4705 25.7341C23.5092 25.6575 23.5301 25.5713 23.531 25.4833V9.265L26.2981 3.20827C26.5213 2.71636 26.5612 2.14581 26.409 1.6212C26.2567 1.09659 25.9248 0.66055 25.4856 0.408277H25.4852ZM23.4888 1.60583C23.6022 1.3605 23.7977 1.17509 24.0329 1.08995C24.2681 1.0048 24.5239 1.02681 24.7447 1.15118L25.065 1.33262C25.2851 1.46028 25.4511 1.67995 25.5268 1.94371C25.6025 2.20747 25.5817 2.49394 25.4689 2.74066L25.0279 3.70751L23.0449 2.57891L23.4888 1.60583ZM22.6517 8.90884C22.634 8.96328 20.0791 14.5348 20.0578 14.5871L19.4825 14.2615L24.0278 4.30266L24.6058 4.63134L22.6517 8.90884ZM18.4574 16.2611L17.761 16.891C17.787 16.3207 17.8478 15.0921 17.8761 14.514L18.6487 14.9526L19.4152 15.386L18.4574 16.2611ZM22.6229 3.50274L23.2 3.83142L18.6547 13.7924L18.0762 13.4642L22.6229 3.50274ZM1.42856 24.6684V7.29603C3.0129 6.46931 4.7404 6.04083 6.4892 6.04083C8.238 6.04083 9.9655 6.46931 11.5498 7.29603V24.6684C9.94997 23.9063 8.22857 23.5134 6.4892 23.5134C4.74983 23.5134 3.02843 23.9063 1.42856 24.6684ZM12.4784 24.6725V7.29188C14.9101 6.03245 17.6492 5.71748 20.2597 6.39709L17.0376 13.4564C17.0129 13.5224 16.9962 13.5918 16.9879 13.6628C16.9355 14.7442 16.8273 16.92 16.7744 18.0009C16.7706 18.1007 16.7924 18.1995 16.8374 18.2858C16.8824 18.3721 16.9486 18.4422 17.0281 18.4877C17.1077 18.5333 17.1972 18.5524 17.2862 18.5429C17.3752 18.5333 17.4599 18.4955 17.5302 18.4338L19.0456 17.0636L20.5499 15.6898C20.5579 15.6768 20.5686 15.6661 20.581 15.6587C20.6169 15.6164 20.6481 15.5694 20.6739 15.5187L22.6025 11.3014V24.6715C21.0023 23.9091 19.2805 23.516 17.5407 23.516C15.8009 23.516 14.0791 23.9091 12.4789 24.6715L12.4784 24.6725Z" fill="#4A148C"/>
</svg>
