<svg width="34" height="34" viewBox="0 0 34 34" fill="none" xmlns="http://www.w3.org/2000/svg">
<path d="M29.0416 12.75H26.9166V9.91664C26.9166 4.44855 22.4682 0 17 0C11.5318 0 7.08336 4.44855 7.08336 9.91664V12.75H4.95836C4.86532 12.7499 4.77318 12.7682 4.68721 12.8038C4.60124 12.8394 4.52313 12.8915 4.45734 12.9573C4.39155 13.0231 4.33937 13.1012 4.3038 13.1872C4.26822 13.2732 4.24994 13.3653 4.25 13.4584V31.1667C4.25 32.7293 5.52068 34 7.08336 34H26.9167C28.4793 34 29.75 32.7293 29.75 31.1666V13.4584C29.7501 13.3653 29.7318 13.2732 29.6962 13.1872C29.6606 13.1012 29.6085 13.0231 29.5427 12.9573C29.4769 12.8915 29.3988 12.8394 29.3128 12.8038C29.2268 12.7682 29.1347 12.7499 29.0416 12.75ZM19.1209 27.5468C19.1318 27.6459 19.1218 27.7461 19.0914 27.8409C19.061 27.9358 19.011 28.0232 18.9445 28.0974C18.8781 28.1716 18.7967 28.231 18.7058 28.2717C18.6148 28.3123 18.5163 28.3333 18.4167 28.3334H15.5834C15.4837 28.3333 15.3852 28.3123 15.2943 28.2717C15.2033 28.231 15.122 28.1716 15.0555 28.0974C14.9891 28.0232 14.939 27.9358 14.9087 27.8409C14.8783 27.7461 14.8682 27.6459 14.8792 27.5468L15.326 23.5286C14.6004 23.0008 14.1667 22.1659 14.1667 21.25C14.1667 19.6874 15.4374 18.4166 17.0001 18.4166C18.5627 18.4166 19.8334 19.6873 19.8334 21.25C19.8334 22.1659 19.3997 23.0008 18.6741 23.5286L19.1209 27.5468ZM22.6666 12.75H11.3334V9.91664C11.3334 6.7921 13.8755 4.25 17 4.25C20.1245 4.25 22.6666 6.7921 22.6666 9.91664V12.75Z" fill="#4A148C"/>
</svg>
